<svg width="1920" height="1780" viewBox="0 0 1920 1780" fill="none" xmlns="http://www.w3.org/2000/svg">
<g clip-path="url(#clip0_14_887)">
<rect width="1920" height="1780" fill="#6B3672"/>
<path opacity="0.32" d="M1315.17 868.808C1315.17 868.808 655.429 607.059 562.422 868.808C469.414 1130.56 1281.27 1079.77 1281.27 1079.77C1281.27 1079.77 824.494 1147.05 799.286 1408.8C774.079 1670.55 1256.07 1568.98 1442.08 1248.63C1416.87 1839.41 1475.98 1847.66 1687.2 1814.23C1898.42 1780.37 1729.36 1223.45 1729.36 1223.45C1729.36 1223.45 1881.47 1662.3 2110.08 1620.2C2338.25 1578.09 2262.2 1257.31 1864.96 1088.45C2346.95 1029.42 2507.75 1172.66 2490.8 894.419C2473.85 616.174 1771.95 860.56 1771.95 860.56C1771.95 860.56 2482.11 556.705 2355.64 362.672C2228.73 168.639 1653.74 826.702 1661.99 759.42C1670.25 691.704 2000.12 269.779 1670.25 202.497C1340.38 134.347 1492.5 864.467 1475.55 788.503C1458.6 712.54 1357.33 176.887 1120.47 278.027C883.601 379.167 1146.11 683.022 1315.17 868.808Z" fill="#F0A2C3" fill-opacity="0.2"/>
</g>
<defs>
<clipPath id="clip0_14_887">
<rect width="1920" height="1780" fill="white"/>
</clipPath>
</defs>
</svg>
