<svg width="1920" height="557" viewBox="0 0 1920 557" fill="none" xmlns="http://www.w3.org/2000/svg">
<g clip-path="url(#clip0_14_892)">
<rect width="1920" height="557" fill="#6B3572"/>
<path opacity="0.32" d="M1023.88 543.434C1023.88 543.434 540.572 351.677 472.437 543.434C404.302 735.192 999.05 697.985 999.05 697.985C999.05 697.985 664.425 747.277 645.958 939.034C627.492 1130.79 980.584 1056.38 1116.85 821.69C1098.39 1254.5 1141.69 1260.54 1296.42 1236.05C1451.16 1211.25 1327.31 803.246 1327.31 803.246C1327.31 803.246 1438.74 1124.75 1606.22 1093.9C1773.37 1063.06 1717.65 828.05 1426.64 704.346C1779.74 661.097 1897.54 766.039 1885.12 562.197C1872.71 358.355 1358.51 537.392 1358.51 537.392C1358.51 537.392 1878.76 314.788 1786.1 172.639C1693.14 30.4901 1271.91 512.588 1277.96 463.297C1284.01 413.688 1525.66 104.586 1284.01 55.2947C1042.35 5.36766 1153.79 540.254 1141.37 484.603C1128.95 428.952 1054.77 36.5323 881.247 110.628C707.726 184.723 900.032 407.328 1023.88 543.434Z" fill="#F0A2C3" fill-opacity="0.2"/>
</g>
<defs>
<clipPath id="clip0_14_892">
<rect width="1920" height="557" fill="white"/>
</clipPath>
</defs>
</svg>
