<svg width="429" height="434" viewBox="0 0 429 434" fill="none" xmlns="http://www.w3.org/2000/svg">
<path d="M242.715 0.503989C222.762 1.68933 203.994 16.7037 199.351 30.9278C190.955 56.2152 191.054 73.9953 191.054 73.9953C191.054 73.9953 183.448 29.8413 155.197 20.6548C128.823 12.1599 92.1763 31.7181 97.8067 63.426C94.7446 62.6358 91.4849 62.1419 88.0276 61.8455C30.5384 57.4005 28.3653 117.063 46.0467 136.917C63.7281 156.871 79.2363 165.662 79.2363 165.662C79.2363 165.662 37.2554 150.154 15.1289 170.107C-5.5158 188.677 -6.79993 230.164 23.4263 241.129C21.2532 243.401 19.1789 245.969 17.2033 248.834C-15.3937 296.445 35.181 328.153 61.2586 322.819C87.3362 317.485 102.746 308.496 102.746 308.496C102.746 308.496 68.3706 337.142 74.4949 366.281C80.2241 393.347 115.488 415.374 140.183 394.532C141.072 397.594 142.257 400.656 143.739 403.817C168.631 455.775 221.379 427.919 229.775 402.632C238.171 377.345 238.072 359.564 238.072 359.564C238.072 359.564 245.678 403.719 273.929 412.905C300.303 421.499 336.95 401.941 331.221 370.233C334.283 371.023 337.543 371.517 341 371.813C398.489 376.258 400.662 316.596 382.981 296.741C365.299 276.887 349.791 267.997 349.791 267.997C349.791 267.997 391.772 283.505 413.898 263.552C434.543 244.981 435.827 203.494 405.502 192.53C407.675 190.258 409.75 187.69 411.725 184.825C444.322 137.214 393.748 105.506 367.67 110.84C342.284 116.075 327.368 124.57 326.479 125.064V124.965C327.368 124.274 360.558 96.2205 354.434 67.4759C348.803 40.213 313.539 18.2842 288.943 39.0277C288.054 35.9655 286.869 32.9034 285.387 29.7425C274.522 7.02338 258.223 -0.385019 242.715 0.503989Z" fill="#F0A6CC"/>
<path d="M234.319 162.796C234.319 162.796 168.039 173.859 158.062 188.182C148.086 202.505 152.531 244.486 170.212 255.549C187.893 266.613 266.423 256.636 273.041 245.573C279.659 234.608 274.127 158.45 234.319 162.796Z" fill="#6B3572"/>
<path d="M230.664 183.739C230.664 183.739 183.744 195.494 180.682 204.779C177.521 214.163 175.249 228.98 183.843 231.351C192.437 233.721 240.937 235.302 247.16 227.4C253.284 219.695 251.803 178.998 230.664 183.739Z" fill="#ECB677"/>
<path d="M233.825 53.1543C237.974 53.8457 238.073 73.6014 234.22 97.3083C230.368 121.015 223.848 139.684 219.798 139.092C215.65 138.4 215.551 118.645 219.403 94.9376C223.256 71.2308 229.676 52.4628 233.825 53.1543Z" fill="#FFFAF7"/>
<path d="M254.074 142.251C250.715 139.782 258.42 124.076 271.162 107.284C283.905 90.4912 296.944 78.8354 300.203 81.4036C303.562 83.8731 295.857 99.5789 283.115 116.371C270.372 133.164 257.432 144.721 254.074 142.251Z" fill="#FFFAF7"/>
<path d="M295.561 178.896C294.574 174.846 310.576 167.438 331.221 162.203C351.964 157.066 369.547 156.078 370.534 160.128C371.522 164.178 355.52 171.587 334.875 176.822C314.231 182.057 296.549 182.946 295.561 178.896Z" fill="#FFFAF7"/>
<path d="M363.521 226.706C363.423 230.855 349.594 234.016 332.505 233.819C315.416 233.621 301.686 230.065 301.686 225.916C301.785 221.768 315.614 218.607 332.703 218.804C349.791 219.002 363.62 222.558 363.521 226.706Z" fill="#FFFAF7"/>
<path d="M341.691 321.237C338.827 324.2 325.097 315.607 311.07 302.074C297.043 288.541 288.055 275.008 290.919 272.045C293.784 269.082 307.514 277.675 321.541 291.208C335.567 304.84 344.556 318.274 341.691 321.237Z" fill="#FFFAF7"/>
<path d="M280.745 364.996C276.794 366.182 267.805 348.5 260.693 325.386C253.581 302.272 251.013 282.615 254.964 281.331C258.915 280.145 267.904 297.827 275.016 320.941C282.128 344.055 284.696 363.811 280.745 364.996Z" fill="#FFFAF7"/>
<path d="M207.254 295.46C211.205 296.646 208.538 317.883 201.228 342.874C193.919 367.865 184.732 387.226 180.683 386.04C176.731 384.855 179.398 363.618 186.708 338.627C194.018 313.636 203.204 294.275 207.254 295.46Z" fill="#FFFAF7"/>
<path d="M116.574 354.033C113.216 351.564 122.699 332.697 137.812 311.756C152.925 290.815 167.84 275.899 171.298 278.27C174.656 280.74 165.173 299.606 150.06 320.547C134.947 341.488 119.933 356.503 116.574 354.033Z" fill="#FFFAF7"/>
<path d="M136.824 244.684C138.305 248.537 122.501 258.019 101.56 265.823C80.6188 273.626 62.4435 276.689 61.0606 272.836C59.5789 268.984 75.3835 259.501 96.3246 251.698C117.266 243.993 135.441 240.832 136.824 244.684Z" fill="#FFFAF7"/>
<path d="M50.8876 197.765C50.7889 193.616 67.9763 189.665 89.3125 189.072C110.649 188.381 128.133 191.245 128.231 195.394C128.33 199.543 111.143 203.494 89.8064 204.087C68.4702 204.778 50.9864 201.913 50.8876 197.765Z" fill="#FFFAF7"/>
<path d="M83.6814 109.456C86.2497 106.196 103.832 115.975 122.798 131.286C141.763 146.597 155.098 161.611 152.431 164.871C149.863 168.13 132.281 158.351 113.315 143.041C94.3495 127.73 81.1132 112.716 83.6814 109.456Z" fill="#FFFAF7"/>
<path d="M140.776 73.503C144.332 71.3298 157.173 85.8503 169.52 105.902C181.868 125.954 188.881 144.031 185.424 146.204C181.868 148.377 169.026 133.857 156.679 113.805C144.332 93.7526 137.22 75.7749 140.776 73.503Z" fill="#FFFAF7"/>
</svg>
