<svg width="1920" height="1072" viewBox="0 0 1920 1072" fill="none" xmlns="http://www.w3.org/2000/svg">
<rect width="1920" height="1072" fill="#FFFAF7"/>
<path d="M1571.41 222.184C1571.41 222.184 1487.74 188.945 1475.94 222.184C1464.15 255.424 1567.11 248.974 1567.11 248.974C1567.11 248.974 1509.18 257.518 1505.98 290.757C1502.79 323.996 1563.92 311.097 1587.51 270.417C1584.31 345.439 1591.81 346.486 1618.6 342.242C1645.39 337.942 1623.95 267.22 1623.95 267.22C1623.95 267.22 1643.24 322.949 1672.23 317.602C1701.17 312.255 1691.53 271.519 1641.14 250.077C1702.28 242.58 1722.67 260.77 1720.52 225.437C1718.37 190.103 1629.35 221.137 1629.35 221.137C1629.35 221.137 1719.42 182.551 1703.38 157.911C1687.28 133.272 1614.35 216.838 1615.4 208.294C1616.45 199.694 1658.29 146.115 1616.45 137.571C1574.61 128.917 1593.9 221.633 1591.75 211.987C1589.6 202.34 1576.76 134.319 1546.72 147.162C1516.68 160.006 1549.97 198.592 1571.41 222.184Z" fill="#6B3672"/>
<path d="M1608.57 177.974C1606.58 177.533 1602.17 191.259 1599.91 208.512C1599.69 210.166 1599.53 211.82 1599.36 213.418C1598.7 219.592 1599.2 229.735 1599.25 232.436C1599.25 232.987 1599.25 233.428 1599.25 233.869C1598.64 233.869 1598.09 233.869 1597.54 233.869C1597.27 233.483 1596.99 233.097 1596.72 232.711C1592.91 227.034 1591.97 224.388 1587.12 215.623C1587.18 215.678 1586.52 214.521 1586.57 214.576C1579.02 200.299 1571.08 188.944 1569.37 190.046C1567.67 191.149 1572.3 203.221 1580.07 217.994C1580.29 218.379 1580.45 218.71 1580.67 219.096C1583.93 225.27 1587.07 230.121 1590.6 233.814C1560.72 233.152 1538.29 231.002 1538.01 232.711C1537.79 234.365 1560.06 239.547 1590.54 240.98C1590.38 241.145 1590.21 241.31 1590.05 241.531C1587.4 244.232 1585.64 246.602 1583.49 248.035C1555.04 267.383 1535.58 284.472 1536.69 285.85C1537.73 287.228 1558.85 272.62 1587.45 253.989C1590.82 251.674 1593.08 248.917 1595.28 246.602C1596.44 245.5 1597.54 244.452 1598.59 243.626C1598.64 244.728 1598.7 246.051 1598.75 247.429C1598.87 249.524 1599.25 263.525 1599.75 269.037C1599.8 269.699 1599.86 270.36 1599.97 270.966C1601.01 278.739 1603.22 284.802 1603.39 289.708C1603.72 297.04 1604.87 302.883 1606.03 302.662C1607.19 302.442 1608.29 298.197 1609.23 289.929C1610 282.818 1608.35 277.802 1607.19 269.974C1607.13 269.423 1607.02 268.872 1606.97 268.321C1606.03 259.115 1605.53 252.996 1603.61 246.602C1603.11 244.949 1602.61 243.57 1602.06 242.413C1602.72 242.688 1603.77 243.129 1605.31 243.35C1611.38 244.342 1616.95 247.705 1621.36 251.508C1626.65 256.083 1631 261.43 1635.3 265.73C1639.16 269.533 1642.69 272.455 1645.44 274.99C1647.87 277.306 1649.25 278.573 1650.79 280.227C1652.94 282.818 1653.49 283.92 1653.99 283.92C1654.65 283.92 1654.81 281.771 1652.94 278.684C1651.89 276.754 1650.46 274.715 1648.42 272.234C1645.94 269.147 1642.69 265.84 1639.38 261.981C1636.13 258.123 1630.95 251.343 1625.88 246.492C1623.84 244.508 1621.47 242.688 1618.93 241.09C1623.06 240.925 1627.03 240.704 1630.84 240.373C1655.37 238.444 1671.68 235.578 1671.68 234.089C1671.68 232.546 1654.21 232.932 1630.45 233.648C1623.12 233.869 1615.24 234.034 1606.91 234.034C1607.02 233.924 1607.13 233.814 1607.3 233.703C1611.49 230.121 1618.27 225.931 1625.6 220.364C1626.1 219.978 1626.59 219.592 1627.09 219.206C1634.2 213.639 1641.14 206.087 1644.67 202.173C1648.81 197.653 1651.34 194.677 1650.74 193.85C1650.13 193.023 1646.44 194.566 1641.25 198.26C1636.13 201.953 1629.73 207.796 1622.57 213.418C1622.13 213.804 1621.63 214.135 1621.19 214.466C1613.86 219.868 1608.62 223.892 1604.54 228.963C1605.2 224.663 1605.53 219.482 1606.31 214.355C1606.53 212.757 1606.75 211.158 1606.97 209.505C1609.39 192.306 1610.55 178.36 1608.57 177.974Z" fill="#FF6946"/>
<path d="M1356.51 555.665C1356.51 555.665 1156.45 476.195 1128.25 555.665C1100.05 635.135 1346.23 619.715 1346.23 619.715C1346.23 619.715 1207.72 640.143 1200.08 719.613C1192.43 799.083 1338.59 768.244 1395 670.982C1387.35 850.35 1405.28 852.854 1469.33 842.706C1533.38 832.427 1482.11 663.338 1482.11 663.338C1482.11 663.338 1528.24 796.579 1597.56 783.796C1666.75 771.012 1643.69 673.618 1523.23 622.351C1669.39 604.428 1718.15 647.919 1713.01 563.441C1707.87 478.962 1495.03 553.161 1495.03 553.161C1495.03 553.161 1710.37 460.907 1672.02 401.996C1633.54 343.086 1459.18 542.881 1461.68 522.454C1464.19 501.894 1564.22 373.793 1464.19 353.365C1364.16 332.674 1410.28 554.347 1405.14 531.284C1400 508.22 1369.3 345.59 1297.47 376.297C1225.64 407.004 1305.25 499.258 1356.51 555.665Z" fill="#FF6946"/>
<path d="M1445.34 449.964C1440.6 448.91 1430.05 481.726 1424.65 522.977C1424.12 526.93 1423.73 530.884 1423.33 534.706C1421.75 549.467 1422.94 573.716 1423.07 580.174C1423.07 581.492 1423.07 582.546 1423.07 583.601C1421.62 583.601 1420.3 583.601 1418.98 583.601C1418.32 582.678 1417.66 581.756 1417.01 580.833C1407.91 567.259 1405.67 560.933 1394.07 539.978C1394.21 540.11 1392.62 537.342 1392.76 537.474C1374.7 503.34 1355.72 476.191 1351.64 478.827C1347.55 481.462 1358.62 510.325 1377.2 545.645C1377.73 546.567 1378.13 547.358 1378.65 548.281C1386.43 563.041 1393.94 574.639 1402.38 583.469C1330.95 581.887 1277.31 576.747 1276.65 580.833C1276.12 584.787 1329.36 597.175 1402.24 600.602C1401.85 600.997 1401.45 601.392 1401.06 601.92C1394.73 608.377 1390.52 614.044 1385.38 617.471C1317.37 663.73 1270.85 704.585 1273.48 707.88C1275.99 711.175 1326.46 676.25 1394.86 631.704C1402.9 626.169 1408.31 619.58 1413.58 614.044C1416.35 611.409 1418.98 608.905 1421.49 606.928C1421.62 609.564 1421.75 612.726 1421.88 616.021C1422.14 621.029 1423.07 654.504 1424.25 667.683C1424.39 669.265 1424.52 670.846 1424.78 672.296C1427.28 690.879 1432.56 705.376 1432.95 717.105C1433.74 734.633 1436.51 748.603 1439.28 748.076C1442.05 747.549 1444.68 737.401 1446.92 717.632C1448.77 700.631 1444.81 688.638 1442.05 669.924C1441.91 668.606 1441.65 667.288 1441.52 665.97C1439.28 643.961 1438.09 629.332 1433.48 614.044C1432.29 610.091 1431.11 606.796 1429.79 604.028C1431.37 604.687 1433.87 605.742 1437.56 606.269C1452.06 608.641 1465.37 616.68 1475.92 625.774C1488.57 636.712 1498.98 649.496 1509.26 659.776C1518.48 668.87 1526.92 675.855 1533.51 681.917C1539.31 687.452 1542.6 690.483 1546.29 694.437C1551.43 700.631 1552.75 703.267 1553.94 703.267C1555.52 703.267 1555.91 698.127 1551.43 690.747C1548.93 686.134 1545.5 681.258 1540.63 675.327C1534.69 667.947 1526.92 660.04 1519.01 650.814C1511.24 641.589 1498.85 625.378 1486.72 613.781C1481.85 609.036 1476.18 604.687 1470.12 600.865C1480 600.47 1489.49 599.943 1498.58 599.152C1557.23 594.539 1596.24 587.686 1596.24 584.128C1596.24 580.438 1554.46 581.36 1497.66 583.073C1480.13 583.601 1461.29 583.996 1441.39 583.996C1441.65 583.732 1441.91 583.469 1442.31 583.205C1452.33 574.639 1468.54 564.623 1486.06 551.312C1487.25 550.389 1488.44 549.467 1489.62 548.544C1506.62 535.233 1523.23 517.178 1531.66 507.821C1541.55 497.014 1547.61 489.897 1546.16 487.92C1544.71 485.943 1535.88 489.633 1523.49 498.463C1511.24 507.293 1495.95 521.263 1478.82 534.706C1477.76 535.629 1476.57 536.419 1475.52 537.21C1457.99 550.126 1445.47 559.746 1435.72 571.871C1437.3 561.591 1438.09 549.203 1439.94 536.947C1440.46 533.125 1440.99 529.303 1441.52 525.349C1447.32 484.23 1450.08 450.887 1445.34 449.964Z" fill="#6B3572"/>
</svg>
